<svg width="60" height="60" viewBox="0 0 60 60" fill="none" xmlns="http://www.w3.org/2000/svg">
<path d="M28.1841 1.27267C29.9972 1.29162 31.8068 1.27279 33.6197 1.25025C41.6588 1.23326 47.3869 2.0867 53.5812 7.40138C59.5983 13.8421 60.0887 19.9573 59.9763 28.2598C59.9566 29.9973 59.9762 31.7315 59.9997 33.4689C60.0175 41.1731 59.1269 46.6624 53.5812 52.5986C46.8604 58.365 40.4794 58.835 31.8159 58.7273C30.0028 58.7084 28.1932 58.7272 26.3803 58.7498C18.3412 58.7667 12.6131 57.9133 6.41883 52.5986C0.401713 46.1579 -0.0887412 40.0427 0.0236595 31.7402C0.0434315 30.0027 0.023777 28.2685 0.000255934 26.5311C-0.017465 18.8269 0.873075 13.3376 6.41883 7.40138C13.1396 1.63497 19.5206 1.16496 28.1841 1.27267Z" fill="#BE1923"/>
<path d="M39.6148 37.5032C39.8238 37.7933 39.4508 38.1454 39.1732 37.9198V37.9198L17.6162 18.4855C16.2554 17.2587 17.1232 15 18.9553 15H49.1188C49.9296 15 50.3505 15.9667 49.7982 16.5602V16.5602C49.6431 16.7269 49.4321 16.8308 49.2054 16.852L29.7608 18.6757C28.2215 18.82 27.4211 20.5818 28.325 21.8362L39.6148 37.5032Z" fill="#FF9933"/>
<path d="M43.2811 11.2609C43.075 15.9408 42.2193 20.3446 41.1441 24.8845C40.5509 27.4402 40.0452 29.9747 39.6849 32.5743C39.6119 33.0992 39.5389 33.6241 39.4637 34.1649C39.3307 35.1654 39.2073 36.1672 39.0956 37.1703C38.5753 41.0649 37.1782 44.5633 34.0989 47.1485C31.3512 48.979 28.2872 48.9934 25.078 49.0343C24.6524 49.0407 24.2267 49.0472 23.7882 49.0538C20.4163 48.9948 17.8831 48.2117 15.3563 45.9435C12.6825 42.3259 12.8958 39.483 13.535 35.1744C14.4986 30.591 16.3992 27.7979 20.1561 25.0109C24.3824 22.2554 29.6976 22.9659 34.5311 23.1359C34.5182 22.4905 34.8569 19.4258 34.8436 18.7609C34.8782 16.6166 35.1561 15.0499 35.1561 15.0499C35.3302 14.152 35.3302 14.152 35.5077 13.236C35.5979 12.7904 35.6882 12.3449 35.7811 11.8859C38.3298 11.3268 40.6686 11.2096 43.2811 11.2609Z" fill="#FFF7F7"/>
<path d="M25.3596 21.3525C25.1557 21.0478 25.5509 20.7007 25.8268 20.9422V20.9422L39.6875 32.8125L48.2359 42.2851C49.3968 43.5715 48.4839 45.625 46.7511 45.625H15.9401C15.0821 45.625 14.621 44.617 15.1819 43.9678V43.9678C15.3493 43.774 15.5846 43.6517 15.8394 43.626L35.4044 41.6499C36.9058 41.4983 37.7048 39.802 36.8656 38.5478L25.3596 21.3525Z" fill="#FF9933"/>
<path d="M37.179 30.3029C38.5149 31.8169 37.021 34.1314 35.0911 33.5377L34.1752 33.2558C33.8952 33.1697 33.6375 33.023 33.4203 32.8263L17.8979 18.759C16.5056 17.4972 17.4641 15.1857 19.3408 15.2795L30.8922 15.8571C31.5108 15.888 31.7997 16.6378 31.3617 17.0758V17.0758C31.2881 17.1494 31.1994 17.206 31.1016 17.2417L29.2869 17.9045C27.8989 18.4115 27.521 20.1966 28.5844 21.2225L32.5 25L37.179 30.3029Z" fill="#FF9933"/>
<path d="M32.5 30.28C31.516 39.6899 31.516 39.6899 29.63 41.6575C28.1973 41.8376 28.1973 41.8376 26.5089 41.8446C25.6754 41.8596 25.6754 41.8596 24.825 41.875C23.316 41.6575 23.316 41.6575 22.2757 40.9277C20.8983 38.7722 21.1693 36.3364 21.594 33.8729C23.628 29.1358 28.2297 29.9231 32.5 30.28Z" fill="#BE1923"/>
</svg>
